<svg xmlns="http://www.w3.org/2000/svg" viewBox="0 0 640 512">
  <path fill="#2c3e50" d="M622.34 153.69L343.4 44.68a72.15 72.15 0 0 0-46.8 0L17.66 153.69c-23.52 9.2-23.56 42.59 0 51.81l278.94 109a72.15 72.15 0 0 0 46.8 0l278.94-109c23.56-9.22 23.52-42.61 0-51.81zM352 360.13v101.32c0 8.8-7.2 15.55-16 14.91-66.9-4.8-211.2-32.8-272-98.2a23.94 23.94 0 0 1-8-17.9V275.1l240.3 93.9a104.1 104.1 0 0 0 75.4 0L592 275.1v85.16a23.94 23.94 0 0 1-8 17.9c-60.8 65.4-205.1 93.4-272 98.2-8.8.64-16-6.11-16-14.91V360.13z"/>
</svg>
